<?xml version="1.0" encoding="iso-8859-1"?>
<!-- Generator: Adobe Illustrator 19.0.0, SVG Export Plug-In . SVG Version: 6.00 Build 0)  -->
<svg xmlns="http://www.w3.org/2000/svg" xmlns:xlink="http://www.w3.org/1999/xlink" version="1.1" id="Layer_1" x="0px" y="0px" viewBox="0 0 512 512" style="enable-background:new 0 0 512 512;" xml:space="preserve" width="512px" height="512px">
<g>
	<g>
		<path d="M406.744,236.314c-2.316-12.026-5.451-24.038-9.316-35.702c-2.901-8.754-12.348-13.496-21.099-10.597    c-8.753,2.901-13.497,12.347-10.597,21.1c3.413,10.298,6.18,20.902,8.224,31.515c1.742,9.046,10.488,14.982,19.552,13.236    C402.562,254.122,408.488,245.368,406.744,236.314z" fill="#FFFFFF"/>
	</g>
</g>
<g>
	<g>
		<path d="M491.29,260.239c-12.91,3.199-25.463,8.064-37.309,14.461c-34.064,18.393-74.232,19.771-109.219,4.159    c-2.094-42.27-16.705-83.01-41.242-116.933l8.136-6.101h66.778c27.618,0,50.087-22.469,50.087-50.087    c0-27.618-22.469-50.087-50.087-50.087h-83.478c-10.755,0-21.426,3.558-30.056,10.024l-66.776,50.081    c-0.002,0.001-0.003,0.002-0.006,0.003l-10.153,7.614c13.846-11.765,22.325-28.24,23.396-47.216    c2.182-38.502-28.448-70.531-66.52-70.591c-35.961-0.098-64.814,27.511-66.814,62.968c-2.325,41.033,32.543,74.427,73.558,70.24    c10.659-1.082,20.604-4.415,29.82-10.482l-36.716,27.532H77.913c-27.618,0-50.087,22.469-50.087,50.087    c0,27.618,22.469,50.087,50.087,50.087h83.478c10.755,0,21.426-3.558,30.056-10.024l31.951-23.963    c7.51,10.705,13.243,22.669,16.883,35.213c-18.424,2.53-36.521,8.343-53.431,17.475C150,294.6,106,294.6,69.15,274.701    c-15.677-8.465-32.423-14.19-49.773-17.014C9.232,256.032,0,263.878,0,274.164v215.573c0,9.22,7.475,16.696,16.696,16.696h478.609    c9.22,0,16.696-7.475,16.696-16.696V276.445C512,265.595,501.8,257.636,491.29,260.239z M177.774,76.859    c-2.019,14.891-13.653,26.158-27.703,28.442c-22.762,3.419-41.228-15.388-38.453-37.464c2.196-16.196,16.107-28.852,32.974-28.852    C164.6,38.983,180.364,56.251,177.774,76.859z M284.93,92.392c2.883-2.16,6.445-3.35,10.026-3.35h83.478    c9.206,0,16.696,7.49,16.696,16.696c0,9.206-7.49,16.696-16.696,16.696h-72.342c-3.612,0-7.127,1.171-10.016,3.338l-14.192,10.642    c-11.406-11.521-20.507-18.262-25.859-22.342L284.93,92.392z M238.585,187.705c-5.799-6.331-15.457-7.229-22.328-2.078    l-44.84,33.631c-2.883,2.16-6.445,3.35-10.026,3.35H77.913c-9.206,0-16.696-7.49-16.696-16.696s7.49-16.696,16.696-16.696h72.342    c3.612,0,7.127-1.171,10.016-3.338l57.863-43.389c5.791-4.331,13.527-4.482,19.356-0.541    c41.563,31.796,65.534,75.045,72.272,121.419c-11.522-3.725-23.355-6.076-35.271-7.065    C268.668,230.902,256.208,206.939,238.585,187.705z M275.145,473.042c2.016-5.608,3.115-11.656,3.115-17.935    c0-5.796-0.126-13.932,1.203-25.402c8.469,15.268,18.413,29.767,29.753,43.336H275.145z M409.015,473.042    c6.064-17.051,2.572-36.679-10.632-50.837c-18.119-19.429-31.902-40.422-40.967-62.397c-3.515-8.524-13.275-12.582-21.8-9.068    c-8.524,3.516-12.584,13.276-9.068,21.8c10.598,25.695,26.551,50.066,47.415,72.439c6.156,6.602,5.973,16.779-0.42,23.171    c-6.529,6.528-17.076,6.529-23.607,0c-26.968-26.968-46.936-59.134-58.857-94.452c-0.004-0.012-0.009-0.024-0.012-0.037    c-4.069-12.061-7.205-24.488-9.354-37.205c-1.536-9.092-10.16-15.216-19.245-13.68c-9.091,1.536-15.216,10.153-13.68,19.245    c2.094,12.389,5.006,24.537,8.704,36.387c-10.042,27.655-12.623,51.482-12.623,76.701c0,9.032-6.421,18.051-16.899,17.935h-0.038    c-9.062-0.121-16.454-7.52-16.454-16.696c0-31.652,3.397-61.098,16.836-95.31c3.371-8.582-0.853-18.273-9.435-21.644    c-8.58-3.371-18.273,0.853-21.644,9.435c-14.741,37.525-19.148,70.81-19.148,107.518c0,5.77,0.992,11.402,2.861,16.696H33.391    V295.438c6.817,2.286,13.466,5.172,19.893,8.644c46.783,25.263,102.646,25.263,149.431,0    c36.828-19.888,80.801-19.898,117.639-0.031c0.038,0.021,0.077,0.039,0.115,0.06c46.771,25.234,102.609,25.225,149.377-0.029    c2.873-1.552,5.796-2.989,8.763-4.307v173.268H409.015z" fill="#FFFFFF"/>
	</g>
</g>
<g>
</g>
<g>
</g>
<g>
</g>
<g>
</g>
<g>
</g>
<g>
</g>
<g>
</g>
<g>
</g>
<g>
</g>
<g>
</g>
<g>
</g>
<g>
</g>
<g>
</g>
<g>
</g>
<g>
</g>
</svg>
